{
  "asset": {
    "version": "2.0",
    "generator": "THREE.GLTFExporter"
  },
  "scenes": [
    {
      "nodes": [
        24
      ],
      "name": "AuxScene"
    }
  ],
  "scene": 0,
  "nodes": [
    {
      "mesh": 0
    },
    {
      "name": "amfobject",
      "children": [
        0
      ]
    },
    {
      "mesh": 1
    },
    {
      "name": "amfobject",
      "children": [
        2
      ]
    },
    {
      "mesh": 2
    },
    {
      "name": "amfobject",
      "children": [
        4
      ]
    },
    {
      "mesh": 3
    },
    {
      "name": "amfobject",
      "children": [
        6
      ]
    },
    {
      "mesh": 4
    },
    {
      "name": "amfobject",
      "children": [
        8
      ]
    },
    {
      "mesh": 5
    },
    {
      "name": "amfobject",
      "children": [
        10
      ]
    },
    {
      "mesh": 6
    },
    {
      "name": "amfobject",
      "children": [
        12
      ]
    },
    {
      "mesh": 7
    },
    {
      "name": "amfobject",
      "children": [
        14
      ]
    },
    {
      "mesh": 8
    },
    {
      "name": "amfobject",
      "children": [
        16
      ]
    },
    {
      "mesh": 9
    },
    {
      "name": "amfobject",
      "children": [
        18
      ]
    },
    {
      "mesh": 10
    },
    {
      "name": "amfobject",
      "children": [
        20
      ]
    },
    {
      "mesh": 11
    },
    {
      "name": "amfobject",
      "children": [
        22
      ]
    },
    {
      "extras": {
        "author": "",
        "loader": "AMF"
      },
      "children": [
        1,
        3,
        5,
        7,
        9,
        11,
        13,
        15,
        17,
        19,
        21,
        23
      ]
    }
  ],
  "bufferViews": [
    {
      "buffer": 0,
      "byteOffset": 0,
      "byteLength": 2844,
      "target": 34962,
      "byteStride": 12
    },
    {
      "buffer": 0,
      "byteOffset": 2844,
      "byteLength": 2784,
      "target": 34963
    },
    {
      "buffer": 0,
      "byteOffset": 5628,
      "byteLength": 2844,
      "target": 34962,
      "byteStride": 12
    },
    {
      "buffer": 0,
      "byteOffset": 8472,
      "byteLength": 2784,
      "target": 34963
    },
    {
      "buffer": 0,
      "byteOffset": 11256,
      "byteLength": 35136,
      "target": 34962,
      "byteStride": 12
    },
    {
      "buffer": 0,
      "byteOffset": 46392,
      "byteLength": 35112,
      "target": 34963
    },
    {
      "buffer": 0,
      "byteOffset": 81504,
      "byteLength": 35136,
      "target": 34962,
      "byteStride": 12
    },
    {
      "buffer": 0,
      "byteOffset": 116640,
      "byteLength": 35112,
      "target": 34963
    },
    {
      "buffer": 0,
      "byteOffset": 151752,
      "byteLength": 35136,
      "target": 34962,
      "byteStride": 12
    },
    {
      "buffer": 0,
      "byteOffset": 186888,
      "byteLength": 35112,
      "target": 34963
    },
    {
      "buffer": 0,
      "byteOffset": 222000,
      "byteLength": 35136,
      "target": 34962,
      "byteStride": 12
    },
    {
      "buffer": 0,
      "byteOffset": 257136,
      "byteLength": 35112,
      "target": 34963
    },
    {
      "buffer": 0,
      "byteOffset": 292248,
      "byteLength": 35136,
      "target": 34962,
      "byteStride": 12
    },
    {
      "buffer": 0,
      "byteOffset": 327384,
      "byteLength": 35112,
      "target": 34963
    },
    {
      "buffer": 0,
      "byteOffset": 362496,
      "byteLength": 35136,
      "target": 34962,
      "byteStride": 12
    },
    {
      "buffer": 0,
      "byteOffset": 397632,
      "byteLength": 35112,
      "target": 34963
    },
    {
      "buffer": 0,
      "byteOffset": 432744,
      "byteLength": 35136,
      "target": 34962,
      "byteStride": 12
    },
    {
      "buffer": 0,
      "byteOffset": 467880,
      "byteLength": 35112,
      "target": 34963
    },
    {
      "buffer": 0,
      "byteOffset": 502992,
      "byteLength": 35136,
      "target": 34962,
      "byteStride": 12
    },
    {
      "buffer": 0,
      "byteOffset": 538128,
      "byteLength": 35112,
      "target": 34963
    },
    {
      "buffer": 0,
      "byteOffset": 573240,
      "byteLength": 40260,
      "target": 34962,
      "byteStride": 12
    },
    {
      "buffer": 0,
      "byteOffset": 613500,
      "byteLength": 38652,
      "target": 34963
    },
    {
      "buffer": 0,
      "byteOffset": 652152,
      "byteLength": 52620,
      "target": 34962,
      "byteStride": 12
    },
    {
      "buffer": 0,
      "byteOffset": 704772,
      "byteLength": 50868,
      "target": 34963
    }
  ],
  "buffers": [
    {
      "byteLength": 755640,
      "uri": "data:application/octet-stream;base64,"
    }
  ],
  "accessors": [
    {
      "bufferView": 0,
      "componentType": 5126,
      "count": 237,
      "max": [
        -9.5,
        12.24590015411377,
        12.25
      ],
      "min": [
        -9.699999809265137,
        -12.24590015411377,
        -12.25
      ],
      "type": "VEC3"
    },
    {
      "bufferView": 1,
      "componentType": 5123,
      "count": 1392,
      "max": [
        236
      ],
      "min": [
        0
      ],
      "type": "SCALAR"
    },
    {
      "bufferView": 2,
      "componentType": 5126,
      "count": 237,
      "max": [
        -0.30000001192092896,
        12.24590015411377,
        12.25
      ],
      "min": [
        -0.5,
        -12.24590015411377,
        -12.25
      ],
      "type": "VEC3"
    },
    {
      "bufferView": 3,
      "componentType": 5123,
      "count": 1392,
      "max": [
        236
      ],
      "min": [
        0
      ],
      "type": "SCALAR"
    },
    {
      "bufferView": 4,
      "componentType": 5126,
      "count": 2928,
      "max": [
        -2.5020298957824707,
        10.277400016784668,
        -5.278950214385986
      ],
      "min": [
        -7.495890140533447,
        5.278950214385986,
        -10.277400016784668
      ],
      "type": "VEC3"
    },
    {
      "bufferView": 5,
      "componentType": 5123,
      "count": 17556,
      "max": [
        2927
      ],
      "min": [
        0
      ],
      "type": "SCALAR"
    },
    {
      "bufferView": 6,
      "componentType": 5126,
      "count": 2928,
      "max": [
        -2.5020298957824707,
        2.497450113296509,
        -8.5
      ],
      "min": [
        -7.495890140533447,
        -2.497450113296509,
        -13.5
      ],
      "type": "VEC3"
    },
    {
      "bufferView": 7,
      "componentType": 5123,
      "count": 17556,
      "max": [
        2927
      ],
      "min": [
        0
      ],
      "type": "SCALAR"
    },
    {
      "bufferView": 8,
      "componentType": 5126,
      "count": 2928,
      "max": [
        -2.5020298957824707,
        -5.278950214385986,
        -5.278950214385986
      ],
      "min": [
        -7.495890140533447,
        -10.277400016784668,
        -10.277400016784668
      ],
      "type": "VEC3"
    },
    {
      "bufferView": 9,
      "componentType": 5123,
      "count": 17556,
      "max": [
        2927
      ],
      "min": [
        0
      ],
      "type": "SCALAR"
    },
    {
      "bufferView": 10,
      "componentType": 5126,
      "count": 2928,
      "max": [
        -2.5020298957824707,
        -8.5,
        2.497450113296509
      ],
      "min": [
        -7.495890140533447,
        -13.5,
        -2.497450113296509
      ],
      "type": "VEC3"
    },
    {
      "bufferView": 11,
      "componentType": 5123,
      "count": 17556,
      "max": [
        2927
      ],
      "min": [
        0
      ],
      "type": "SCALAR"
    },
    {
      "bufferView": 12,
      "componentType": 5126,
      "count": 2928,
      "max": [
        -2.5020298957824707,
        -5.278950214385986,
        10.277400016784668
      ],
      "min": [
        -7.495890140533447,
        -10.277400016784668,
        5.278950214385986
      ],
      "type": "VEC3"
    },
    {
      "bufferView": 13,
      "componentType": 5123,
      "count": 17556,
      "max": [
        2927
      ],
      "min": [
        0
      ],
      "type": "SCALAR"
    },
    {
      "bufferView": 14,
      "componentType": 5126,
      "count": 2928,
      "max": [
        -2.5020298957824707,
        2.497450113296509,
        13.5
      ],
      "min": [
        -7.495890140533447,
        -2.497450113296509,
        8.5
      ],
      "type": "VEC3"
    },
    {
      "bufferView": 15,
      "componentType": 5123,
      "count": 17556,
      "max": [
        2927
      ],
      "min": [
        0
      ],
      "type": "SCALAR"
    },
    {
      "bufferView": 16,
      "componentType": 5126,
      "count": 2928,
      "max": [
        -2.5020298957824707,
        10.277400016784668,
        10.277400016784668
      ],
      "min": [
        -7.495890140533447,
        5.278950214385986,
        5.278950214385986
      ],
      "type": "VEC3"
    },
    {
      "bufferView": 17,
      "componentType": 5123,
      "count": 17556,
      "max": [
        2927
      ],
      "min": [
        0
      ],
      "type": "SCALAR"
    },
    {
      "bufferView": 18,
      "componentType": 5126,
      "count": 2928,
      "max": [
        -2.5020298957824707,
        13.5,
        2.497450113296509
      ],
      "min": [
        -7.495890140533447,
        8.5,
        -2.497450113296509
      ],
      "type": "VEC3"
    },
    {
      "bufferView": 19,
      "componentType": 5123,
      "count": 17556,
      "max": [
        2927
      ],
      "min": [
        0
      ],
      "type": "SCALAR"
    },
    {
      "bufferView": 20,
      "componentType": 5126,
      "count": 3355,
      "max": [
        -1.0841999887286873e-16,
        9.748250007629395,
        9.75
      ],
      "min": [
        -10,
        -9.748250007629395,
        -9.75
      ],
      "type": "VEC3"
    },
    {
      "bufferView": 21,
      "componentType": 5123,
      "count": 19326,
      "max": [
        3354
      ],
      "min": [
        0
      ],
      "type": "SCALAR"
    },
    {
      "bufferView": 22,
      "componentType": 5126,
      "count": 4385,
      "max": [
        2.1683999774573746e-16,
        15.997300148010254,
        15.989100456237793
      ],
      "min": [
        -10,
        -15.997300148010254,
        -16
      ],
      "type": "VEC3"
    },
    {
      "bufferView": 23,
      "componentType": 5123,
      "count": 25434,
      "max": [
        4384
      ],
      "min": [
        0
      ],
      "type": "SCALAR"
    }
  ],
  "materials": [
    {
      "pbrMetallicRoughness": {
        "baseColorFactor": [
          "0.898039",
          "0.898039",
          "0.898039",
          1
        ],
        "metallicFactor": 0.5,
        "roughnessFactor": 0.5
      }
    },
    {
      "pbrMetallicRoughness": {
        "baseColorFactor": [
          "0.898039",
          "0.898039",
          "0.898039",
          1
        ],
        "metallicFactor": 0.5,
        "roughnessFactor": 0.5
      }
    },
    {
      "pbrMetallicRoughness": {
        "baseColorFactor": [
          "0.898039",
          "0.898039",
          "0.898039",
          1
        ],
        "metallicFactor": 0.5,
        "roughnessFactor": 0.5
      }
    },
    {
      "pbrMetallicRoughness": {
        "baseColorFactor": [
          "0.898039",
          "0.898039",
          "0.898039",
          1
        ],
        "metallicFactor": 0.5,
        "roughnessFactor": 0.5
      }
    },
    {
      "pbrMetallicRoughness": {
        "baseColorFactor": [
          "0.898039",
          "0.898039",
          "0.898039",
          1
        ],
        "metallicFactor": 0.5,
        "roughnessFactor": 0.5
      }
    },
    {
      "pbrMetallicRoughness": {
        "baseColorFactor": [
          "0.898039",
          "0.898039",
          "0.898039",
          1
        ],
        "metallicFactor": 0.5,
        "roughnessFactor": 0.5
      }
    },
    {
      "pbrMetallicRoughness": {
        "baseColorFactor": [
          "0.898039",
          "0.898039",
          "0.898039",
          1
        ],
        "metallicFactor": 0.5,
        "roughnessFactor": 0.5
      }
    },
    {
      "pbrMetallicRoughness": {
        "baseColorFactor": [
          "0.898039",
          "0.898039",
          "0.898039",
          1
        ],
        "metallicFactor": 0.5,
        "roughnessFactor": 0.5
      }
    },
    {
      "pbrMetallicRoughness": {
        "baseColorFactor": [
          "0.898039",
          "0.898039",
          "0.898039",
          1
        ],
        "metallicFactor": 0.5,
        "roughnessFactor": 0.5
      }
    },
    {
      "pbrMetallicRoughness": {
        "baseColorFactor": [
          "0.898039",
          "0.898039",
          "0.898039",
          1
        ],
        "metallicFactor": 0.5,
        "roughnessFactor": 0.5
      }
    },
    {
      "pbrMetallicRoughness": {
        "baseColorFactor": [
          "0.898039",
          "0.898039",
          "0.898039",
          1
        ],
        "metallicFactor": 0.5,
        "roughnessFactor": 0.5
      }
    },
    {
      "pbrMetallicRoughness": {
        "baseColorFactor": [
          "0.898039",
          "0.898039",
          "0.898039",
          1
        ],
        "metallicFactor": 0.5,
        "roughnessFactor": 0.5
      }
    }
  ],
  "meshes": [
    {
      "primitives": [
        {
          "mode": 4,
          "attributes": {
            "POSITION": 0
          },
          "indices": 1,
          "material": 0
        }
      ]
    },
    {
      "primitives": [
        {
          "mode": 4,
          "attributes": {
            "POSITION": 2
          },
          "indices": 3,
          "material": 1
        }
      ]
    },
    {
      "primitives": [
        {
          "mode": 4,
          "attributes": {
            "POSITION": 4
          },
          "indices": 5,
          "material": 2
        }
      ]
    },
    {
      "primitives": [
        {
          "mode": 4,
          "attributes": {
            "POSITION": 6
          },
          "indices": 7,
          "material": 3
        }
      ]
    },
    {
      "primitives": [
        {
          "mode": 4,
          "attributes": {
            "POSITION": 8
          },
          "indices": 9,
          "material": 4
        }
      ]
    },
    {
      "primitives": [
        {
          "mode": 4,
          "attributes": {
            "POSITION": 10
          },
          "indices": 11,
          "material": 5
        }
      ]
    },
    {
      "primitives": [
        {
          "mode": 4,
          "attributes": {
            "POSITION": 12
          },
          "indices": 13,
          "material": 6
        }
      ]
    },
    {
      "primitives": [
        {
          "mode": 4,
          "attributes": {
            "POSITION": 14
          },
          "indices": 15,
          "material": 7
        }
      ]
    },
    {
      "primitives": [
        {
          "mode": 4,
          "attributes": {
            "POSITION": 16
          },
          "indices": 17,
          "material": 8
        }
      ]
    },
    {
      "primitives": [
        {
          "mode": 4,
          "attributes": {
            "POSITION": 18
          },
          "indices": 19,
          "material": 9
        }
      ]
    },
    {
      "primitives": [
        {
          "mode": 4,
          "attributes": {
            "POSITION": 20
          },
          "indices": 21,
          "material": 10
        }
      ]
    },
    {
      "primitives": [
        {
          "mode": 4,
          "attributes": {
            "POSITION": 22
          },
          "indices": 23,
          "material": 11
        }
      ]
    }
  ]
}