{
  "asset": {
    "version": "2.0",
    "generator": "THREE.GLTFExporter"
  },
  "scenes": [
    {
      "nodes": [
        8
      ],
      "name": "AuxScene"
    }
  ],
  "scene": 0,
  "nodes": [
    {
      "mesh": 0
    },
    {
      "name": "amfobject",
      "children": [
        0
      ]
    },
    {
      "mesh": 1
    },
    {
      "name": "amfobject",
      "children": [
        2
      ]
    },
    {
      "mesh": 2
    },
    {
      "name": "amfobject",
      "children": [
        4
      ]
    },
    {
      "mesh": 3
    },
    {
      "name": "amfobject",
      "children": [
        6
      ]
    },
    {
      "extras": {
        "author": "",
        "loader": "AMF"
      },
      "children": [
        1,
        3,
        5,
        7
      ]
    }
  ],
  "bufferViews": [
    {
      "buffer": 0,
      "byteOffset": 0,
      "byteLength": 1572,
      "target": 34962,
      "byteStride": 12
    },
    {
      "buffer": 0,
      "byteOffset": 1572,
      "byteLength": 1500,
      "target": 34963
    },
    {
      "buffer": 0,
      "byteOffset": 3072,
      "byteLength": 1524,
      "target": 34962,
      "byteStride": 12
    },
    {
      "buffer": 0,
      "byteOffset": 4596,
      "byteLength": 1500,
      "target": 34963
    },
    {
      "buffer": 0,
      "byteOffset": 6096,
      "byteLength": 1572,
      "target": 34962,
      "byteStride": 12
    },
    {
      "buffer": 0,
      "byteOffset": 7668,
      "byteLength": 1500,
      "target": 34963
    },
    {
      "buffer": 0,
      "byteOffset": 9168,
      "byteLength": 1572,
      "target": 34962,
      "byteStride": 12
    },
    {
      "buffer": 0,
      "byteOffset": 10740,
      "byteLength": 1500,
      "target": 34963
    }
  ],
  "buffers": [
    {
      "byteLength": 12240,
      "uri": "data:application/octet-stream;base64,"
    }
  ],
  "accessors": [
    {
      "bufferView": 0,
      "componentType": 5126,
      "count": 131,
      "max": [
        4.618710041046143,
        59.40010070800781,
        123.5999984741211
      ],
      "min": [
        -4.618710041046143,
        51.37080001831055,
        -1.7347199819658997e-15
      ],
      "type": "VEC3"
    },
    {
      "bufferView": 1,
      "componentType": 5123,
      "count": 750,
      "max": [
        130
      ],
      "min": [
        0
      ],
      "type": "SCALAR"
    },
    {
      "bufferView": 2,
      "componentType": 5126,
      "count": 127,
      "max": [
        -51.37080001831055,
        4.618710041046143,
        123.5999984741211
      ],
      "min": [
        -59.40010070800781,
        -4.618710041046143,
        0
      ],
      "type": "VEC3"
    },
    {
      "bufferView": 3,
      "componentType": 5123,
      "count": 750,
      "max": [
        126
      ],
      "min": [
        0
      ],
      "type": "SCALAR"
    },
    {
      "bufferView": 4,
      "componentType": 5126,
      "count": 131,
      "max": [
        4.618710041046143,
        -51.37080001831055,
        123.5999984741211
      ],
      "min": [
        -4.618710041046143,
        -59.40010070800781,
        -1.7347199819658997e-15
      ],
      "type": "VEC3"
    },
    {
      "bufferView": 5,
      "componentType": 5123,
      "count": 750,
      "max": [
        130
      ],
      "min": [
        0
      ],
      "type": "SCALAR"
    },
    {
      "bufferView": 6,
      "componentType": 5126,
      "count": 131,
      "max": [
        59.40010070800781,
        4.618710041046143,
        123.5999984741211
      ],
      "min": [
        51.37080001831055,
        -4.618710041046143,
        -1.7347199819658997e-15
      ],
      "type": "VEC3"
    },
    {
      "bufferView": 7,
      "componentType": 5123,
      "count": 750,
      "max": [
        130
      ],
      "min": [
        0
      ],
      "type": "SCALAR"
    }
  ],
  "materials": [
    {
      "pbrMetallicRoughness": {
        "baseColorFactor": [
          "0.780392",
          "0.760784",
          "0.741176",
          1
        ],
        "metallicFactor": 0.5,
        "roughnessFactor": 0.5
      }
    },
    {
      "pbrMetallicRoughness": {
        "baseColorFactor": [
          "0.780392",
          "0.760784",
          "0.741176",
          1
        ],
        "metallicFactor": 0.5,
        "roughnessFactor": 0.5
      }
    },
    {
      "pbrMetallicRoughness": {
        "baseColorFactor": [
          "0.780392",
          "0.760784",
          "0.741176",
          1
        ],
        "metallicFactor": 0.5,
        "roughnessFactor": 0.5
      }
    },
    {
      "pbrMetallicRoughness": {
        "baseColorFactor": [
          "0.780392",
          "0.760784",
          "0.741176",
          1
        ],
        "metallicFactor": 0.5,
        "roughnessFactor": 0.5
      }
    }
  ],
  "meshes": [
    {
      "primitives": [
        {
          "mode": 4,
          "attributes": {
            "POSITION": 0
          },
          "indices": 1,
          "material": 0
        }
      ]
    },
    {
      "primitives": [
        {
          "mode": 4,
          "attributes": {
            "POSITION": 2
          },
          "indices": 3,
          "material": 1
        }
      ]
    },
    {
      "primitives": [
        {
          "mode": 4,
          "attributes": {
            "POSITION": 4
          },
          "indices": 5,
          "material": 2
        }
      ]
    },
    {
      "primitives": [
        {
          "mode": 4,
          "attributes": {
            "POSITION": 6
          },
          "indices": 7,
          "material": 3
        }
      ]
    }
  ]
}