{
  "accessors": [
    {
      "bufferView": 2,
      "componentType": 5126,
      "count": 31969,
      "max": [
        356.501953125,
        263.5,
        260.0001220703125
      ],
      "min": [
        -335.208984375,
        -328.5,
        -0.008740394376218319
      ],
      "type": "VEC3"
    },
    {
      "bufferView": 2,
      "byteOffset": 383628,
      "componentType": 5126,
      "count": 31969,
      "max": [
        1.0,
        1.0,
        1.0
      ],
      "min": [
        -1.0,
        -1.0,
        -1.0
      ],
      "type": "VEC3"
    },
    {
      "bufferView": 1,
      "componentType": 5126,
      "count": 31969,
      "max": [
        0.9955339431762695,
        1.0
      ],
      "min": [
        -0.044857125729322433,
        -0.5193151235580444
      ],
      "type": "VEC2"
    },
    {
      "bufferView": 1,
      "byteOffset": 255752,
      "componentType": 5126,
      "count": 31969,
      "max": [
        356.501953125,
        263.5
      ],
      "min": [
        -513.1954345703125,
        -328.5
      ],
      "type": "VEC2"
    },
    {
      "bufferView": 1,
      "byteOffset": 511504,
      "componentType": 5126,
      "count": 31969,
      "max": [
        0.9955339431762695,
        1.0
      ],
      "min": [
        -0.044857125729322433,
        -0.5193151235580444
      ],
      "type": "VEC2"
    },
    {
      "bufferView": 0,
      "componentType": 5125,
      "count": 105942,
      "type": "SCALAR"
    },
    {
      "bufferView": 2,
      "byteOffset": 767256,
      "componentType": 5126,
      "count": 26,
      "max": [
        286.5,
        155.0,
        240.99884033203125
      ],
      "min": [
        -122.5,
        -304.0,
        239.49884033203125
      ],
      "type": "VEC3"
    },
    {
      "bufferView": 2,
      "byteOffset": 767568,
      "componentType": 5126,
      "count": 26,
      "max": [
        0.0,
        0.0,
        -1.0
      ],
      "min": [
        0.0,
        0.0,
        -1.0
      ],
      "type": "VEC3"
    },
    {
      "bufferView": 1,
      "byteOffset": 767256,
      "componentType": 5126,
      "count": 26,
      "max": [
        1.0,
        1.0
      ],
      "min": [
        1.0,
        1.0
      ],
      "type": "VEC2"
    },
    {
      "bufferView": 0,
      "byteOffset": 423768,
      "componentType": 5125,
      "count": 42,
      "type": "SCALAR"
    },
    {
      "bufferView": 2,
      "byteOffset": 767880,
      "componentType": 5126,
      "count": 216,
      "max": [
        35.32788848876953,
        18.5,
        134.0
      ],
      "min": [
        -0.91796875,
        -56.5,
        0.0
      ],
      "type": "VEC3"
    },
    {
      "bufferView": 2,
      "byteOffset": 770472,
      "componentType": 5126,
      "count": 216,
      "max": [
        1.0,
        1.0,
        1.0
      ],
      "min": [
        -1.0,
        -1.0,
        -1.0
      ],
      "type": "VEC3"
    },
    {
      "bufferView": 1,
      "byteOffset": 767464,
      "componentType": 5126,
      "count": 216,
      "max": [
        1.0000019073486328,
        1.0
      ],
      "min": [
        0.0,
        -9.280629456043243e-07
      ],
      "type": "VEC2"
    },
    {
      "bufferView": 0,
      "byteOffset": 423936,
      "componentType": 5125,
      "count": 396,
      "type": "SCALAR"
    },
    {
      "bufferView": 2,
      "byteOffset": 773064,
      "componentType": 5126,
      "count": 42,
      "max": [
        356.501953125,
        -147.0,
        240.0
      ],
      "min": [
        -160.498046875,
        -315.0,
        7.0
      ],
      "type": "VEC3"
    },
    {
      "bufferView": 2,
      "byteOffset": 773568,
      "componentType": 5126,
      "count": 42,
      "max": [
        1.0,
        0.7071068286895752,
        0.7071068286895752
      ],
      "min": [
        -1.0,
        -0.7071068286895752,
        -0.7071287035942078
      ],
      "type": "VEC3"
    },
    {
      "bufferView": 1,
      "byteOffset": 769192,
      "componentType": 5126,
      "count": 42,
      "max": [
        1.0,
        1.0
      ],
      "min": [
        0.9999999403953552,
        0.9999999403953552
      ],
      "type": "VEC2"
    },
    {
      "bufferView": 0,
      "byteOffset": 425520,
      "componentType": 5125,
      "count": 66,
      "type": "SCALAR"
    },
    {
      "bufferView": 2,
      "byteOffset": 774072,
      "componentType": 5126,
      "count": 112,
      "max": [
        90.14799499511719,
        60.0,
        9.70037841796875
      ],
      "min": [
        0.3476702570915222,
        0.0,
        0.131615549325943
      ],
      "type": "VEC3"
    },
    {
      "bufferView": 2,
      "byteOffset": 775416,
      "componentType": 5126,
      "count": 112,
      "max": [
        0.6780365705490112,
        1.0,
        1.0
      ],
      "min": [
        -0.6780374646186829,
        -1.0,
        -1.0
      ],
      "type": "VEC3"
    },
    {
      "bufferView": 1,
      "byteOffset": 769528,
      "componentType": 5126,
      "count": 112,
      "max": [
        35.260013580322266,
        12.855008125305176
      ],
      "min": [
        -35.260013580322266,
        -0.034544527530670166
      ],
      "type": "VEC2"
    },
    {
      "bufferView": 0,
      "byteOffset": 425784,
      "componentType": 5125,
      "count": 300,
      "type": "SCALAR"
    },
    {
      "bufferView": 2,
      "byteOffset": 776760,
      "componentType": 5126,
      "count": 16,
      "max": [
        47.9990234375,
        6.0,
        103.0
      ],
      "min": [
        -216.24609375,
        -586.0,
        7.0
      ],
      "type": "VEC3"
    },
    {
      "bufferView": 2,
      "byteOffset": 776952,
      "componentType": 5126,
      "count": 16,
      "max": [
        0.0,
        1.0,
        0.0
      ],
      "min": [
        0.0,
        -1.0,
        0.0
      ],
      "type": "VEC3"
    },
    {
      "bufferView": 1,
      "byteOffset": 770424,
      "componentType": 5126,
      "count": 16,
      "max": [
        1.0,
        1.0
      ],
      "min": [
        0.0,
        0.0
      ],
      "type": "VEC2"
    },
    {
      "bufferView": 0,
      "byteOffset": 426984,
      "componentType": 5125,
      "count": 24,
      "type": "SCALAR"
    }
  ],
  "asset": {
    "extras": {
      "author": "SrMonteiro (https://sketchfab.com/crispimrafael)",
      "license": "CC-BY-4.0 (http://creativecommons.org/licenses/by/4.0/)",
      "source": "https://sketchfab.com/3d-models/antonio-mascarenha-a5f1d9492e204474a55c520f94f89be4",
      "title": "Antonio Mascarenha"
    },
    "generator": "Sketchfab-14.21.0",
    "version": "2.0"
  },
  "bufferViews": [
    {
      "buffer": 0,
      "byteLength": 427080,
      "name": "floatBufferViews",
      "target": 34963
    },
    {
      "buffer": 0,
      "byteLength": 770552,
      "byteOffset": 427080,
      "byteStride": 8,
      "name": "floatBufferViews",
      "target": 34962
    },
    {
      "buffer": 0,
      "byteLength": 777144,
      "byteOffset": 1197632,
      "byteStride": 12,
      "name": "floatBufferViews",
      "target": 34962
    }
  ],
  "buffers": [
    {
      "byteLength": 1974776,
      "uri": "scene.bin"
    }
  ],
  "images": [
    {
      "uri": "textures/Material_2146802338_baseColor.jpeg"
    }
  ],
  "materials": [
    {
      "name": "Material_2146802338",
      "pbrMetallicRoughness": {
        "baseColorTexture": {
          "index": 0
        },
        "metallicFactor": 0.0,
        "roughnessFactor": 0.8929713596497552
      }
    },
    {
      "emissiveFactor": [
        1.0,
        1.0,
        1.0
      ],
      "name": "Material_2146802006",
      "pbrMetallicRoughness": {
        "metallicFactor": 0.0,
        "roughnessFactor": 0.6
      }
    },
    {
      "alphaMode": "BLEND",
      "doubleSided": true,
      "name": "Material_2146801999",
      "pbrMetallicRoughness": {
        "baseColorFactor": [
          1.0,
          1.0,
          1.0,
          0.1569528592849045
        ],
        "roughnessFactor": 0.0
      }
    },
    {
      "name": "Material_2146801996",
      "pbrMetallicRoughness": {
        "roughnessFactor": 0.0
      }
    },
    {
      "alphaMode": "BLEND",
      "doubleSided": true,
      "name": "Material_2146802003",
      "pbrMetallicRoughness": {
        "baseColorFactor": [
          1.0,
          1.0,
          1.0,
          0.236191196011264
        ],
        "roughnessFactor": 0.02628274676646636
      }
    },
    {
      "name": "Material_2146802008",
      "pbrMetallicRoughness": {
        "roughnessFactor": 0.11771159683534282
      }
    }
  ],
  "meshes": [
    {
      "name": "Object347_Material #2146802338_0",
      "primitives": [
        {
          "attributes": {
            "NORMAL": 1,
            "POSITION": 0,
            "TEXCOORD_0": 2,
            "TEXCOORD_1": 3,
            "TEXCOORD_2": 4
          },
          "indices": 5,
          "material": 0,
          "mode": 4
        }
      ]
    },
    {
      "name": "Object355_Material #2146802006_0",
      "primitives": [
        {
          "attributes": {
            "NORMAL": 7,
            "POSITION": 6,
            "TEXCOORD_0": 8
          },
          "indices": 9,
          "material": 1,
          "mode": 4
        }
      ]
    },
    {
      "name": "Box013_Material #2146801999_0",
      "primitives": [
        {
          "attributes": {
            "NORMAL": 11,
            "POSITION": 10,
            "TEXCOORD_0": 12
          },
          "indices": 13,
          "material": 2,
          "mode": 4
        }
      ]
    },
    {
      "name": "Object350_Material #2146801996_0",
      "primitives": [
        {
          "attributes": {
            "NORMAL": 15,
            "POSITION": 14,
            "TEXCOORD_0": 16
          },
          "indices": 17,
          "material": 3,
          "mode": 4
        }
      ]
    },
    {
      "name": "Object001_Material #2146802003_0",
      "primitives": [
        {
          "attributes": {
            "NORMAL": 19,
            "POSITION": 18,
            "TEXCOORD_0": 20
          },
          "indices": 21,
          "material": 4,
          "mode": 4
        }
      ]
    },
    {
      "name": "Object359_Material #2146802008_0",
      "primitives": [
        {
          "attributes": {
            "NORMAL": 23,
            "POSITION": 22,
            "TEXCOORD_0": 24
          },
          "indices": 25,
          "material": 5,
          "mode": 4
        }
      ]
    }
  ],
  "nodes": [
    {
      "children": [
        1
      ],
      "matrix": [
        1.0,
        0.0,
        0.0,
        0.0,
        0.0,
        2.220446049250313e-16,
        -1.0,
        0.0,
        0.0,
        1.0,
        2.220446049250313e-16,
        0.0,
        0.0,
        0.0,
        0.0,
        1.0
      ],
      "name": "Sketchfab_model"
    },
    {
      "children": [
        2
      ],
      "matrix": [
        0.009999999776482582,
        0.0,
        0.0,
        0.0,
        0.0,
        0.0,
        0.009999999776482582,
        0.0,
        0.0,
        -0.009999999776482582,
        0.0,
        0.0,
        0.0,
        0.0,
        0.0,
        1.0
      ],
      "name": "3b69613673f449b9a82fffea0e8c9cf9.fbx"
    },
    {
      "children": [
        3,
        5
      ],
      "name": "RootNode"
    },
    {
      "children": [
        4
      ],
      "matrix": [
        1.0,
        0.0,
        0.0,
        0.0,
        0.0,
        2.220446049250313e-16,
        -1.0,
        0.0,
        0.0,
        1.0,
        2.220446049250313e-16,
        0.0,
        27729.16015625,
        0.0,
        -4828.57666015625,
        1.0
      ],
      "name": "Object347"
    },
    {
      "mesh": 0,
      "name": "Object347_Material #2146802338_0"
    },
    {
      "children": [
        6,
        8,
        10,
        12,
        14
      ],
      "matrix": [
        1.0,
        0.0,
        0.0,
        0.0,
        0.0,
        2.220446049250313e-16,
        -1.0,
        0.0,
        0.0,
        1.0,
        2.220446049250313e-16,
        0.0,
        27747.3046875,
        130.0,
        -4796.07666015625,
        1.0
      ],
      "name": "Group003"
    },
    {
      "children": [
        7
      ],
      "matrix": [
        1.0,
        0.0,
        0.0,
        0.0,
        0.0,
        1.0,
        0.0,
        0.0,
        0.0,
        0.0,
        1.0,
        0.0,
        -18.14453125,
        32.5,
        -130.0,
        1.0
      ],
      "name": "Object355"
    },
    {
      "mesh": 1,
      "name": "Object355_Material #2146802006_0"
    },
    {
      "children": [
        9
      ],
      "matrix": [
        1.0,
        0.0,
        0.0,
        0.0,
        0.0,
        1.0,
        0.0,
        0.0,
        0.0,
        0.0,
        1.0,
        0.0,
        300.03515625,
        -223.0,
        -37.0,
        1.0
      ],
      "name": "Box013"
    },
    {
      "mesh": 2,
      "name": "Box013_Material #2146801999_0"
    },
    {
      "children": [
        11
      ],
      "matrix": [
        1.0,
        0.0,
        0.0,
        0.0,
        0.0,
        1.0,
        0.0,
        0.0,
        0.0,
        0.0,
        1.0,
        0.0,
        -18.14453125,
        32.5,
        -130.0,
        1.0
      ],
      "name": "Object350"
    },
    {
      "mesh": 3,
      "name": "Object350_Material #2146801996_0"
    },
    {
      "children": [
        13
      ],
      "matrix": [
        0.9999999999998863,
        -4.7683715820307084e-07,
        0.0,
        0.0,
        4.7683715820307084e-07,
        0.9999999999998863,
        0.0,
        0.0,
        0.0,
        0.0,
        1.0,
        0.0,
        -24.49609375,
        221.423828125,
        31.857666015625,
        1.0
      ],
      "name": "Object001"
    },
    {
      "mesh": 4,
      "name": "Object001_Material #2146802003_0"
    },
    {
      "children": [
        15
      ],
      "matrix": [
        1.0,
        0.0,
        0.0,
        0.0,
        0.0,
        1.0,
        0.0,
        0.0,
        0.0,
        0.0,
        1.0,
        0.0,
        114.36328125,
        290.0,
        -20.0,
        1.0
      ],
      "name": "Object359"
    },
    {
      "mesh": 5,
      "name": "Object359_Material #2146802008_0"
    }
  ],
  "samplers": [
    {
      "magFilter": 9729,
      "minFilter": 9987,
      "wrapS": 10497,
      "wrapT": 10497
    }
  ],
  "scene": 0,
  "scenes": [
    {
      "name": "Sketchfab_Scene",
      "nodes": [
        0
      ]
    }
  ],
  "textures": [
    {
      "sampler": 0,
      "source": 0
    }
  ]
}
